<?xml version="1.0" standalone="no"?>
<!DOCTYPE svg PUBLIC "-//W3C//DTD SVG 20010904//EN"
 "http://www.w3.org/TR/2001/REC-SVG-20010904/DTD/svg10.dtd">
<svg version="1.0" xmlns="http://www.w3.org/2000/svg"
 width="200.000000pt" height="200.000000pt" viewBox="0 0 200.000000 200.000000"
 preserveAspectRatio="xMidYMid meet">

<g transform="translate(0.000000,200.000000) scale(0.100000,-0.100000)"
fill="#000000" stroke="none">
<path d="M958 1803 c23 -2 61 -2 85 0 23 2 4 4 -43 4 -47 0 -66 -2 -42 -4z"/>
<path d="M868 1793 c7 -3 16 -2 19 1 4 3 -2 6 -13 5 -11 0 -14 -3 -6 -6z"/>
<path d="M1108 1793 c7 -3 16 -2 19 1 4 3 -2 6 -13 5 -11 0 -14 -3 -6 -6z"/>
<path d="M828 1783 c7 -3 16 -2 19 1 4 3 -2 6 -13 5 -11 0 -14 -3 -6 -6z"/>
<path d="M1184 1771 c4 -5 -5 -23 -19 -39 -20 -24 -25 -41 -25 -86 0 -60 -14
-75 -25 -26 -4 17 -11 30 -16 30 -6 0 -7 -5 -3 -11 4 -7 -2 -9 -17 -7 -16 2
-25 12 -31 37 -5 18 -11 31 -13 29 -3 -2 0 -21 6 -41 8 -30 15 -37 34 -37 29
0 43 -19 24 -31 -21 -13 -63 -11 -85 6 -10 8 -32 14 -49 14 l-30 -1 32 -8 c18
-4 40 -13 48 -20 9 -8 30 -11 55 -7 44 6 57 -4 66 -50 6 -29 4 -30 -33 -36
-28 -5 -44 -2 -63 12 -14 10 -35 21 -47 25 -25 8 -63 -8 -63 -26 0 -9 3 -9 12
0 18 18 46 15 84 -9 23 -14 43 -19 62 -15 47 11 65 -12 70 -88 l4 -67 -33 20
c-34 21 -87 26 -123 12 -17 -6 -16 -9 9 -39 16 -19 40 -34 60 -38 l34 -6 -20
-36 c-20 -38 -26 -97 -10 -106 9 -6 42 29 68 70 10 16 11 12 6 -21 -7 -59 -44
-195 -52 -195 -4 0 -6 13 -3 29 3 21 -2 33 -21 48 -19 15 -23 23 -15 37 13 24
6 29 -26 17 -29 -12 -30 -10 -17 37 11 35 5 39 -25 17 -29 -22 -33 -18 -18 23
15 41 18 72 7 72 -4 0 -18 -10 -31 -22 -23 -21 -25 -22 -18 -3 13 36 19 75 10
75 -4 0 -19 -10 -32 -22 l-25 -23 6 40 c9 57 -4 74 -32 39 l-21 -27 0 43 0 43
-24 -22 -24 -23 -7 41 c-9 55 -21 59 -42 17 -9 -20 -20 -36 -23 -36 -4 0 -12
18 -19 41 -14 46 -30 47 -45 1 -11 -31 -12 -32 -29 -15 -16 16 -17 16 -17 -15
0 -38 -3 -38 -55 -12 -22 11 -47 20 -57 20 -18 0 -18 -2 -2 -32 9 -18 27 -45
41 -59 l24 -26 -30 -13 c-39 -16 -39 -26 0 -34 l31 -6 -23 -20 -24 -19 43 -1
43 0 -20 -29 c-28 -39 -27 -42 14 -25 51 21 53 18 14 -22 l-34 -37 30 6 c17 3
38 9 48 13 17 6 17 4 -2 -27 -32 -53 -27 -58 33 -33 19 7 19 6 -2 -28 -29 -47
-28 -52 8 -33 42 22 53 19 34 -10 -23 -35 -11 -42 32 -21 26 12 35 13 31 4 -3
-7 -13 -30 -22 -52 -15 -34 -15 -38 -1 -32 9 3 23 9 32 13 14 5 15 1 9 -26 -6
-30 -5 -32 13 -22 20 11 69 64 88 97 10 16 14 10 33 -51 12 -38 24 -109 27
-157 l5 -88 -25 0 c-31 0 -33 11 -6 35 11 10 20 23 20 29 -1 6 -13 -4 -29 -21
-16 -19 -38 -34 -52 -34 -52 -3 36 -17 111 -18 81 -1 185 19 228 45 15 8 18
12 7 8 -58 -21 -155 -43 -191 -43 l-41 -1 -6 45 c-4 41 0 54 43 128 63 108 84
133 120 145 27 10 34 7 81 -29 62 -50 106 -69 157 -69 l38 0 -27 58 c-30 62
-52 87 -84 95 -12 3 -5 5 16 6 38 1 69 -22 69 -52 0 -9 4 -17 9 -17 26 0 28
96 3 126 -25 32 -55 44 -106 44 -43 0 -50 -4 -113 -65 -37 -36 -68 -63 -70
-62 -1 2 8 48 22 101 14 54 25 112 25 128 l0 30 31 -26 c31 -26 75 -43 85 -33
11 11 -18 77 -40 94 l-23 17 42 27 c38 24 76 82 62 96 -13 13 -80 -10 -113
-39 -19 -17 -37 -29 -39 -26 -3 2 -6 36 -7 75 -1 57 3 77 21 106 12 20 26 61
31 93 10 62 32 94 63 94 21 0 21 0 1 15 -10 8 -23 14 -29 15 -5 0 -3 -4 5 -10
12 -8 12 -10 -3 -16 -22 -8 -42 -47 -51 -96 -4 -20 -16 -59 -28 -85 -20 -45
-21 -46 -30 -23 -5 13 -6 43 -2 65 4 22 6 56 5 76 -2 26 5 44 23 66 27 32 33
53 15 53 -5 0 -8 -4 -5 -9z m-483 -383 c11 -43 4 -128 -11 -128 -22 0 -38 105
-24 157 9 31 21 20 35 -29z m64 -85 c-3 -17 -15 -42 -26 -55 l-20 -23 4 65 c2
36 12 83 22 105 l19 40 4 -50 c2 -27 1 -64 -3 -82z m545 89 c0 -24 -47 -69
-88 -83 -42 -14 -47 -8 -28 29 20 38 58 63 109 71 4 0 7 -7 7 -17z m-660 -66
c0 -15 -3 -16 -15 -6 -8 7 -15 27 -15 44 l1 31 14 -25 c8 -14 14 -33 15 -44z
m-67 23 c26 -17 47 -34 48 -37 0 -4 2 -15 4 -24 6 -31 -38 -16 -88 31 -70 64
-45 84 36 30z m244 -19 c-9 -72 -67 -170 -67 -112 0 43 50 161 69 162 2 0 1
-23 -2 -50z m292 2 c19 -9 36 -22 38 -28 5 -16 -62 -25 -97 -12 -31 10 -55 40
-43 52 12 12 68 6 102 -12z m-260 -101 c-11 -28 -27 -56 -35 -62 -32 -26 -6
87 33 148 l18 27 3 -31 c2 -17 -7 -54 -19 -82z m47 -28 c-51 -99 -77 -113 -47
-25 20 58 64 115 69 89 2 -9 -8 -37 -22 -64z m220 -14 c-15 -21 -31 -39 -36
-39 -23 0 -1 71 33 108 l22 24 3 -27 c2 -16 -6 -42 -22 -66z m123 70 c17 -18
35 -69 24 -69 -26 0 -93 59 -93 82 0 17 50 7 69 -13z m-635 2 c8 -13 -10 -17
-50 -13 -19 2 -31 8 -28 13 7 12 71 12 78 0z m50 -22 c-9 -15 -68 -39 -96 -39
-22 0 -22 0 -3 14 40 27 112 45 99 25z m29 -41 c-10 -12 -32 -27 -50 -34 -69
-30 -67 -8 5 37 49 31 74 29 45 -3z m268 -19 c-11 -30 -69 -109 -79 -109 -4 0
-14 5 -22 10 -13 8 -13 11 2 26 16 16 17 16 12 -7 -3 -13 4 -4 16 21 30 63 74
119 78 99 1 -8 -1 -26 -7 -40z m-232 10 c-22 -14 -33 -10 -19 6 7 8 17 12 22
9 6 -4 5 -10 -3 -15z m67 -16 c-11 -11 -19 6 -11 24 8 17 8 17 12 0 3 -10 2
-21 -1 -24z m-61 -13 c-6 -10 -98 -60 -111 -60 -17 0 35 45 71 61 41 18 52 18
40 -1z m40 0 c3 -5 -1 -10 -9 -10 -9 0 -16 5 -16 10 0 6 4 10 9 10 6 0 13 -4
16 -10z m222 -42 c-19 -45 -97 -111 -97 -82 0 26 96 132 108 120 2 -2 -3 -19
-11 -38z m-163 17 c-4 -8 -8 -15 -10 -15 -2 0 -4 7 -4 15 0 8 4 15 10 15 5 0
7 -7 4 -15z m-102 -45 c-29 -28 -60 -50 -68 -50 -19 0 -18 7 7 38 27 35 69 62
94 62 16 -1 9 -11 -33 -50z m78 31 c0 -5 -7 -12 -16 -15 -24 -9 -28 -7 -14 9
14 17 30 20 30 6z m-21 -67 c-35 -37 -87 -69 -96 -60 -15 15 62 89 102 98 32
7 31 0 -6 -38z m251 26 c-24 -45 -120 -118 -120 -91 0 15 35 54 73 82 47 34
62 37 47 9z m330 5 c36 -19 50 -43 50 -87 l0 -33 -23 26 c-29 35 -44 39 -101
28 -33 -6 -54 -5 -69 3 -21 11 -20 13 18 24 37 11 38 13 11 13 -28 1 -29 1
-11 21 22 24 83 27 125 5z m-533 -27 c-22 -14 -28 -8 -16 13 9 17 13 19 20 8
5 -8 3 -16 -4 -21z m237 -14 c25 -24 21 -47 -6 -38 -20 6 -21 5 -10 -9 11 -13
10 -16 -7 -22 -20 -6 -61 9 -61 22 0 10 52 63 61 63 4 0 15 -7 23 -16z m-242
-31 c-21 -30 -102 -81 -102 -64 0 18 49 68 82 84 41 20 45 15 20 -20z m34 0
c-10 -10 -19 5 -10 18 6 11 8 11 12 0 2 -7 1 -15 -2 -18z m360 -25 c-9 -5 -36
-15 -61 -22 -42 -13 -44 -13 -35 4 5 10 22 27 37 38 25 18 29 19 51 4 20 -13
21 -17 8 -24z m-346 4 c0 -18 -50 -78 -79 -95 -35 -20 -37 -18 -16 22 22 44
95 100 95 73z m115 -18 c17 -11 35 -14 60 -10 47 9 46 -5 -5 -104 -66 -126
-65 -125 -83 -44 -9 38 -23 87 -32 108 -9 21 -15 39 -13 41 5 4 43 24 46 25 1
0 14 -7 27 -16z m343 0 c22 -15 44 -50 56 -91 6 -18 3 -23 -11 -23 -41 0 -93
22 -128 56 -42 39 -42 50 0 34 39 -15 43 -6 5 10 -23 9 -28 15 -18 21 21 14
72 10 96 -7z m-438 -21 c0 -15 -51 -91 -65 -97 -24 -9 -18 17 15 62 27 38 50
54 50 35z"/>
<path d="M718 1744 c-39 -21 -35 -28 5 -8 37 19 44 24 31 24 -5 -1 -21 -8 -36
-16z"/>
<path d="M1310 1717 c0 -3 17 -17 37 -33 20 -15 33 -23 29 -16 -8 13 -66 56
-66 49z"/>
<path d="M629 1683 c-13 -16 -12 -17 4 -4 9 7 17 15 17 17 0 8 -8 3 -21 -13z"/>
<path d="M569 1633 l-34 -38 38 34 c34 33 42 41 34 41 -2 0 -19 -17 -38 -37z"/>
<path d="M1400 1646 c0 -2 8 -10 18 -17 15 -13 16 -12 3 4 -13 16 -21 21 -21
13z"/>
<path d="M1455 1580 c10 -11 20 -20 23 -20 3 0 -3 9 -13 20 -10 11 -20 20 -23
20 -3 0 3 -9 13 -20z"/>
<path d="M519 1573 c-13 -16 -12 -17 4 -4 9 7 17 15 17 17 0 8 -8 3 -21 -13z"/>
<path d="M453 1464 c-14 -30 -23 -57 -21 -59 2 -2 16 23 30 55 14 33 24 60 22
60 -3 0 -17 -25 -31 -56z"/>
<path d="M1516 1487 c3 -10 9 -15 12 -12 3 3 0 11 -7 18 -10 9 -11 8 -5 -6z"/>
<path d="M421 1374 c0 -11 3 -14 6 -6 3 7 2 16 -1 19 -3 4 -6 -2 -5 -13z"/>
<path d="M412 1330 c0 -14 2 -19 5 -12 2 6 2 18 0 25 -3 6 -5 1 -5 -13z"/>
<path d="M1571 1324 c0 -11 3 -14 6 -6 3 7 2 16 -1 19 -3 4 -6 -2 -5 -13z"/>
<path d="M404 1215 c0 -49 1 -71 3 -48 2 23 2 64 0 90 -2 26 -3 8 -3 -42z"/>
<path d="M1583 1215 c0 -44 2 -61 4 -37 2 23 2 59 0 80 -2 20 -4 1 -4 -43z"/>
<path d="M412 1100 c0 -14 2 -19 5 -12 2 6 2 18 0 25 -3 6 -5 1 -5 -13z"/>
<path d="M1571 1104 c0 -11 3 -14 6 -6 3 7 2 16 -1 19 -3 4 -6 -2 -5 -13z"/>
<path d="M421 1054 c0 -11 3 -14 6 -6 3 7 2 16 -1 19 -3 4 -6 -2 -5 -13z"/>
<path d="M440 996 c0 -11 40 -86 45 -86 3 0 -4 19 -16 43 -23 45 -29 54 -29
43z"/>
<path d="M1481 887 c-20 -34 -125 -138 -171 -170 -23 -17 -23 -17 8 0 41 22
150 129 175 172 24 42 14 40 -12 -2z"/>
<path d="M538 834 c47 -62 184 -164 218 -164 5 0 -19 16 -53 36 -35 19 -93 65
-130 102 -46 46 -57 54 -35 26z"/>
<path d="M1260 690 c-9 -6 -10 -10 -3 -10 6 0 15 5 18 10 8 12 4 12 -15 0z"/>
<path d="M795 655 c17 -8 37 -14 45 -14 8 0 -1 7 -20 14 -46 18 -64 17 -25 0z"/>
<path d="M755 538 c-20 -17 -47 -53 -61 -80 -14 -27 -29 -46 -34 -43 -13 8
-13 -1 0 -26 14 -25 56 -25 97 1 36 21 51 60 36 92 -7 16 -5 26 9 40 22 22 24
48 3 48 -8 0 -30 -14 -50 -32z m43 0 c-8 -13 -25 -28 -38 -35 l-23 -11 24 -4
c33 -4 36 -39 7 -71 -25 -27 -73 -43 -83 -27 -9 14 60 135 88 155 31 22 42 19
25 -7z"/>
<path d="M1198 515 c-12 -25 -27 -45 -34 -45 -7 0 -12 -10 -12 -22 -1 -13 -2
-34 -4 -48 -3 -24 -1 -25 47 -22 29 2 61 11 78 23 49 35 32 -6 -21 -50 -27
-23 -58 -60 -71 -84 -14 -26 -15 -33 -4 -17 10 14 35 43 56 65 l39 40 -7 -29
c-7 -35 -61 -112 -83 -121 -8 -3 -19 0 -24 7 -6 10 -8 8 -8 -4 0 -55 87 21
126 109 13 30 32 62 42 71 10 9 11 13 3 7 -12 -8 -13 -6 -8 15 21 79 21 77 -7
40 -28 -36 -73 -66 -84 -55 -3 3 2 19 12 35 9 17 13 30 8 30 -5 0 -15 -14 -22
-30 -12 -30 -46 -57 -57 -46 -10 10 7 56 27 73 10 9 17 20 15 24 -3 4 2 23 10
43 22 51 9 45 -17 -9z"/>
<path d="M1091 428 c-40 -46 -57 -50 -36 -8 9 17 11 30 6 30 -5 0 -14 -13 -21
-30 -7 -16 -18 -30 -24 -30 -6 0 -3 -5 6 -11 13 -7 24 -5 41 6 13 8 32 13 41
9 12 -4 15 -2 10 9 -3 9 0 25 6 37 18 34 8 30 -29 -12z"/>
<path d="M852 444 c-16 -11 -22 -24 -20 -42 3 -25 6 -27 53 -28 28 0 58 4 68
9 11 5 23 4 31 -2 9 -8 12 -1 11 31 -1 49 -13 56 -46 28 l-24 -21 23 11 c27
13 37 8 28 -15 -8 -22 -36 -31 -47 -14 -5 8 -9 9 -9 3 0 -12 -59 -28 -68 -19
-3 3 5 16 18 30 30 31 16 53 -18 29z m10 -26 c-7 -7 -12 -8 -12 -2 0 14 12 26
19 19 2 -3 -1 -11 -7 -17z"/>
</g>
</svg>
